<svg width="18" height="18" viewBox="0 0 18 18" fill="none" xmlns="http://www.w3.org/2000/svg">
<g clip-path="url(#clip0_3_7109)">
<path d="M17.6977 8.0467L16.177 6.66115V2.06683C16.177 1.77451 15.9401 1.53748 15.6477 1.53748H11.9874C11.6951 1.53748 11.4581 1.77447 11.4581 2.06683V2.36123L9.62165 0.687897C9.26717 0.364846 8.73262 0.364881 8.37828 0.687862L0.302268 8.04673C0.0183462 8.30548 -0.0754857 8.70415 0.0632406 9.06236C0.202002 9.42057 0.539853 9.652 0.924005 9.652H2.21385V17.025C2.21385 17.3173 2.45084 17.5544 2.7432 17.5544H7.16982C7.46214 17.5544 7.69916 17.3174 7.69916 17.025V12.5483H10.3008V17.025C10.3008 17.3174 10.5377 17.5544 10.8301 17.5544H15.2565C15.5489 17.5544 15.7859 17.3174 15.7859 17.025V9.65204H17.076C17.4601 9.65204 17.798 9.42057 17.9368 9.0624C18.0754 8.70415 17.9816 8.30548 17.6977 8.0467ZM15.2565 8.59334C14.9642 8.59334 14.7272 8.83033 14.7272 9.12269V16.4957H11.3595V12.019C11.3595 11.7267 11.1225 11.4897 10.8301 11.4897H7.16982C6.87749 11.4897 6.64047 11.7266 6.64047 12.019V16.4957H3.27251V9.12269C3.27251 8.83037 3.03552 8.59334 2.74316 8.59334H1.27423L9.00001 1.55365L11.631 3.95099C11.7859 4.09218 12.0096 4.12857 12.2013 4.04395C12.3931 3.95922 12.5168 3.76931 12.5168 3.55971V2.59618H15.1184V6.89494C15.1184 7.0439 15.1811 7.1859 15.2912 7.28623L16.7257 8.59334H15.2565Z" fill="black"/>
</g>
<defs>
<clipPath id="clip0_3_7109">
<rect width="18" height="18" fill="white"/>
</clipPath>
</defs>
</svg>
