<svg width="18" height="16" viewBox="0 0 18 16" fill="none" xmlns="http://www.w3.org/2000/svg">
<path d="M16.8037 11.0285L11.9362 8.10027C11.2525 7.68897 10.492 7.42791 9.70506 7.32972V6.59625C9.70506 6.18302 9.94168 5.79836 10.3225 5.59223C11.2687 5.08013 11.8258 4.09383 11.7763 3.01814C11.7108 1.59335 10.5588 0.439645 9.13226 0.374139C7.53307 0.301217 6.2246 1.5744 6.2246 3.14846C6.2246 3.53683 6.53949 3.85159 6.92772 3.85159C7.31609 3.85159 7.63085 3.53683 7.63085 3.14846C7.63085 2.37008 8.2778 1.74249 9.06758 1.77888C9.76659 1.81101 10.3394 2.38381 10.3715 3.08282C10.3961 3.61483 10.1208 4.10249 9.65302 4.35558C8.81778 4.80767 8.29881 5.66625 8.29881 6.59625V7.32931C7.51521 7.42654 6.75743 7.6854 6.07559 8.09341L1.20123 11.0104H1.2011C0.461305 11.4532 0.000978114 12.2638 1.68088e-05 13.1261C-0.00149381 14.4906 1.1014 15.5962 2.46604 15.5979L15.5281 15.6131H15.5311C16.8911 15.6131 17.9984 14.5074 18 13.147C18.001 12.2848 17.5426 11.4729 16.8037 11.0285ZM15.5311 14.2069C15.5307 14.2069 15.5302 14.2069 15.5299 14.2069L2.46782 14.1916C1.8817 14.191 1.40558 13.7137 1.40627 13.1278C1.40668 12.7566 1.60484 12.4076 1.92331 12.217H1.92317L6.79767 9.30012C8.15613 8.48713 9.85324 8.48837 11.2113 9.3052L16.0789 12.2335C16.3968 12.4248 16.5942 12.7743 16.5938 13.1453C16.5931 13.7309 16.1165 14.2069 15.5311 14.2069Z" fill="black"/>
</svg>
